<svg aria-hidden="true" style="width:0;height:0;position:absolute;overflow:hidden" xmlns="http://www.w3.org/2000/svg"><defs><symbol id="icon-burgermenu" viewBox="0 0 32 32"><path d="M26.733 14H5.266c-.7 0-1.267.425-1.267.95v.1c0 .525.567.95 1.267.95h21.467c.7 0 1.267-.425 1.267-.95v-.1c0-.525-.567-.95-1.267-.95zM26.733 20H5.266c-.7 0-1.267.425-1.267.95v.1c0 .525.567.95 1.267.95h21.467c.7 0 1.267-.425 1.267-.95v-.1c0-.525-.567-.95-1.267-.95zM26.733 8H5.266c-.7 0-1.267.425-1.267.95v.1c0 .525.567.95 1.267.95h21.467c.7 0 1.267-.425 1.267-.95v-.1c0-.525-.567-.95-1.267-.95z"/></symbol><symbol id="icon-icecream" viewBox="0 0 34 32"><path d="M17.184 14.109c1.613-4.366-1.727-6.756-3.942-8.327-.423-.321-.847-.621-1.19-.895A4.161 4.161 0 0 1 10.718.576a.447.447 0 0 0-.132-.455.463.463 0 0 0-.466-.094 7.478 7.478 0 0 0-2.054 1.22 4.857 4.857 0 0 0-1.901 3.846 5.639 5.639 0 0 0-1.097 1.144 4.193 4.193 0 0 0-.809 2.681 5.3 5.3 0 0 0-1.613 4.987 1.433 1.433 0 0 0 .753 2.664h.03v2.483a.947.947 0 0 0 .953.95h.741l1.207 10.43a.952.952 0 0 0 .944.845h5.022a.96.96 0 0 0 .948-.844l1.207-10.43h.741a.947.947 0 0 0 .953-.95V16.57h.03a1.447 1.447 0 0 0 1.337-1.996 1.411 1.411 0 0 0-.316-.47l-.013.004zM6.315 6.188c.61 2.284 2.964 3.184 5.111 3.986a.463.463 0 0 0 .645-.617.467.467 0 0 0-.319-.227C9.44 8.456 7.26 7.641 7.095 5.306c-.039-.642.082-1.283.352-1.867s.68-1.093 1.194-1.481a6.874 6.874 0 0 1 1.033-.709 5.362 5.362 0 0 0 0 .878 4.994 4.994 0 0 0 1.786 3.476c.351.3.788.608 1.27.937 1.114.798 2.38 1.689 3.184 2.897a4.512 4.512 0 0 1 .462 4.285h-1.871c-3.857 0-8.29-1.064-9.167-4.045a3.414 3.414 0 0 1 .999-3.466l-.021-.021zm3.472 14.394 1.414 1.41-1.414 1.41-1.414-1.419 1.414-1.402zm3.243 3.704-1.169 1.165-1.414-1.41 1.414-1.406 1.228 1.22-.059.431zM9.787 27.52l-1.414-1.41 1.414-1.41 1.414 1.41-1.414 1.41zm-.648-3.471-1.414 1.41-1.177-1.174-.051-.422 1.228-1.22 1.414 1.406zM7.073 26.11l-.284.283-.072-.642.356.359zm-.148 1.444.8-.798 1.554 1.562a.72.72 0 0 0 .03.093H7.023l-.097-.857zm4.928-.798.8.798-.097.845h-2.35l1.647-1.643zm.932-.363-.284-.283.36-.359-.076.642zm.423-3.691-.707-.718.898-.895-.191 1.613zm-1.359-1.36-1.342-1.334h2.684l-1.342 1.334zm-4.128 0-1.342-1.334h2.684l-1.342 1.334zm4.572 9.02H7.276c-.008-.001-.015-.004-.02-.01s-.009-.012-.01-.02l-.119-1.013h5.318l-.114 1.013c-.001.008-.005.016-.011.021s-.014.008-.023.008h-.004zm3.883-14.711h-1.474a.47.47 0 0 0-.355.117.46.46 0 0 0 .355.797h.525v2.483c-.001.008-.005.016-.011.021s-.014.008-.023.008H4.366c-.008 0-.016-.003-.023-.008s-.01-.013-.011-.021v-2.483h8.388a.46.46 0 0 0 0-.916H3.405a.516.516 0 0 1-.527-.31.53.53 0 0 1 0-.422.533.533 0 0 1 .312-.285.506.506 0 0 1 .215-.025h.961a.46.46 0 0 0 0-.916h-.847a4.51 4.51 0 0 1 .923-3.674c.296.921 1.059 2.179 2.964 3.18 1.791.933 4.162 1.41 7.046 1.41h1.694a.516.516 0 0 1 .527.31.526.526 0 0 1 0 .422.533.533 0 0 1-.312.285.506.506 0 0 1-.215.025h.03zM28.122 25.994a1.266 1.266 0 0 0-.379.74l2.208.012c-.003-.261-.045-.47-.128-.627a.637.637 0 0 0-.142-.186c-.171-.159-.424-.238-.758-.238-.33 0-.597.1-.801.3zm4.226 4.079.116-1.553h-.33a10.28 10.28 0 0 1-.307.122c-.727.274-1.377.41-1.95.41-.652 0-1.168-.106-1.547-.318a1.712 1.712 0 0 1-.337-.246 1.309 1.309 0 0 1-.372-.628l4.96.024.073-1.009c0-.399-.082-.764-.245-1.095-.285-.587-.764-1.027-1.437-1.321a5.4 5.4 0 0 0-2.128-.428c-1.57 0-2.768.369-3.596 1.107-.298.265-.54.614-.728 1.046s-.281.907-.281 1.425c0 .514.092.956.275 1.327.183.367.422.667.716.899.298.228.654.418 1.07.569.416.147.836.249 1.26.306s.94.086 1.547.086a8.53 8.53 0 0 0 1.89-.22c.648-.143 1.099-.31 1.352-.501zm.745-1.56-.141 1.889-.225.171c-.368.279-.933.468-1.593.614a9.164 9.164 0 0 1-2.026.235c-.625 0-1.17-.029-1.631-.091a6.906 6.906 0 0 1-1.385-.336l-.005-.002a4.585 4.585 0 0 1-1.238-.661l-.008-.006a3.257 3.257 0 0 1-.887-1.11l-.001-.003c-.235-.476-.34-1.017-.34-1.605 0-.595.108-1.156.333-1.674a3.55 3.55 0 0 1 .886-1.264c.982-.876 2.353-1.266 4.013-1.266.828 0 1.621.159 2.373.478l.006.003c.791.345 1.39.882 1.749 1.619.209.423.309.884.309 1.37v.023l-.118 1.616h-.07z"/><path d="M23.104 26.26a7.905 7.905 0 0 0-1.049-.076c-1.827 0-2.74.402-2.74 1.205 0 .432.181.766.544 1.003.367.232.903.349 1.608.349a12.563 12.563 0 0 0 2.073-.171l.043 1.926c-.775.204-1.619.306-2.532.306s-1.68-.071-2.3-.214c-.62-.139-1.105-.294-1.456-.465s-.66-.371-.93-.599c-.579-.489-.866-1.142-.862-1.957 0-.506.1-.962.3-1.37.367-.746 1.007-1.292 1.92-1.639.913-.351 1.92-.526 3.021-.526s2.145.122 3.131.367l-.153 1.963a11.862 11.862 0 0 0-.62-.101zm-8.226 1.304c-.005.984.352 1.818 1.084 2.437.313.265.667.493 1.059.684.413.202.951.369 1.592.513.681.156 1.497.23 2.438.23.96 0 1.858-.107 2.691-.326l.478-.126-.07-3.145-.715.121c-.637.108-1.293.162-1.968.162-.65 0-1.047-.11-1.27-.249a.509.509 0 0 1-.256-.476c0-.073.018-.114.044-.149.032-.043.106-.111.267-.182.336-.148.916-.248 1.803-.248.441 0 .957.053 1.553.166l.663.126c.012-.091.027-.18.045-.268l.227-2.917-.515-.128a13.592 13.592 0 0 0-3.282-.385c-1.168 0-2.251.186-3.244.567-1.033.392-1.81 1.035-2.259 1.948v.001a3.707 3.707 0 0 0-.364 1.644z"/></symbol></defs></svg>