<svg aria-hidden="true" style="position: absolute; width: 0; height: 0; overflow: hidden;" version="1.1" xmlns="http://www.w3.org/2000/svg" xmlns:xlink="http://www.w3.org/1999/xlink">
<defs>
<!-- hero-header section -->
<symbol id="icon-burgermenu" viewBox="0 0 32 32"><path d="M26.733 14h-21.467c-0.7 0-1.267 0.425-1.267 0.95v0.1c0 0.525 0.567 0.95 1.267 0.95h21.467c0.7 0 1.267-0.425 1.267-0.95v-0.1c0-0.525-0.567-0.95-1.267-0.95z"></path><path d="M26.733 20h-21.467c-0.7 0-1.267 0.425-1.267 0.95v0.1c0 0.525 0.567 0.95 1.267 0.95h21.467c0.7 0 1.267-0.425 1.267-0.95v-0.1c0-0.525-0.567-0.95-1.267-0.95z"></path><path d="M26.733 8h-21.467c-0.7 0-1.267 0.425-1.267 0.95v0.1c0 0.525 0.567 0.95 1.267 0.95h21.467c0.7 0 1.267-0.425 1.267-0.95v-0.1c0-0.525-0.567-0.95-1.267-0.95z"></path></symbol>
<symbol id="icon-icecream" viewBox="0 0 34 32"><path d="M17.184 14.109c1.613-4.366-1.727-6.756-3.942-8.327-0.423-0.321-0.847-0.621-1.19-0.895-0.613-0.516-1.064-1.196-1.301-1.96s-0.248-1.58-0.033-2.351c0.022-0.081 0.022-0.166-0.002-0.246s-0.068-0.153-0.13-0.209c-0.062-0.057-0.138-0.095-0.22-0.112s-0.167-0.010-0.246 0.018c-0.746 0.294-1.439 0.706-2.054 1.22-0.59 0.454-1.069 1.037-1.398 1.703s-0.502 1.4-0.503 2.143c-0.418 0.328-0.787 0.713-1.097 1.144-0.569 0.775-0.855 1.722-0.809 2.681-0.678 0.621-1.183 1.407-1.466 2.281s-0.333 1.806-0.147 2.706c-0.27 0.163-0.479 0.409-0.594 0.701s-0.132 0.615-0.047 0.917 0.268 0.569 0.52 0.758c0.252 0.189 0.559 0.29 0.874 0.288h0.030v2.483c0 0.252 0.1 0.494 0.279 0.672s0.421 0.278 0.674 0.278h0.741l1.207 10.43c0.025 0.232 0.135 0.447 0.31 0.603s0.4 0.242 0.634 0.242h5.022c0.234-0 0.46-0.087 0.635-0.242s0.286-0.37 0.313-0.602l1.207-10.43h0.741c0.253 0 0.495-0.1 0.674-0.278s0.279-0.42 0.279-0.672v-2.483h0.030c0.383 0 0.75-0.152 1.021-0.422s0.423-0.636 0.423-1.018c0.002-0.191-0.035-0.38-0.107-0.556s-0.18-0.336-0.316-0.47l-0.013 0.004zM6.315 6.188c0.61 2.284 2.964 3.184 5.111 3.986 0.058 0.035 0.123 0.058 0.19 0.065s0.136 0 0.2-0.021c0.064-0.022 0.123-0.057 0.172-0.104s0.087-0.104 0.111-0.167 0.034-0.131 0.030-0.198c-0.005-0.067-0.024-0.133-0.058-0.192s-0.079-0.11-0.134-0.149c-0.055-0.039-0.118-0.066-0.185-0.078-2.312-0.874-4.492-1.689-4.657-4.024-0.039-0.642 0.082-1.283 0.352-1.867s0.68-1.093 1.194-1.481c0.322-0.267 0.668-0.505 1.033-0.709-0.024 0.292-0.024 0.586 0 0.878 0.049 0.669 0.232 1.322 0.539 1.919s0.731 1.126 1.247 1.557c0.351 0.3 0.788 0.608 1.27 0.937 1.114 0.798 2.38 1.689 3.184 2.897 0.429 0.619 0.696 1.336 0.777 2.084s-0.028 1.505-0.315 2.201h-1.871c-3.857 0-8.29-1.064-9.167-4.045-0.174-0.613-0.172-1.263 0.004-1.875s0.521-1.164 0.995-1.591l-0.021-0.021zM9.787 20.582l1.414 1.41-1.414 1.41-1.414-1.419 1.414-1.402zM13.030 24.286l-1.169 1.165-1.414-1.41 1.414-1.406 1.228 1.22-0.059 0.431zM9.787 27.52l-1.414-1.41 1.414-1.41 1.414 1.41-1.414 1.41zM9.139 24.049l-1.414 1.41-1.177-1.174-0.051-0.422 1.228-1.22 1.414 1.406zM7.073 26.11l-0.284 0.283-0.072-0.642 0.356 0.359zM6.925 27.554l0.8-0.798 1.554 1.562c0.008 0.032 0.018 0.063 0.030 0.093h-2.286l-0.097-0.857zM11.853 26.756l0.8 0.798-0.097 0.845h-2.35l1.647-1.643zM12.785 26.393l-0.284-0.283 0.36-0.359-0.076 0.642zM13.208 22.702l-0.707-0.718 0.898-0.895-0.191 1.613zM11.849 21.342l-1.342-1.334h2.684l-1.342 1.334zM7.721 21.342l-1.342-1.334h2.684l-1.342 1.334zM12.293 30.362h-5.017c-0.008-0.001-0.015-0.004-0.020-0.010s-0.009-0.012-0.010-0.020l-0.119-1.013h5.318l-0.114 1.013c-0.001 0.008-0.005 0.016-0.011 0.021s-0.014 0.008-0.023 0.008h-0.004zM16.176 15.651h-1.474c-0.064-0.006-0.129 0.001-0.19 0.021s-0.117 0.053-0.165 0.096c-0.048 0.043-0.086 0.096-0.112 0.154s-0.040 0.122-0.040 0.186c0 0.064 0.013 0.128 0.040 0.186s0.064 0.111 0.112 0.154c0.048 0.043 0.104 0.076 0.165 0.096s0.126 0.027 0.19 0.021h0.525v2.483c-0.001 0.008-0.005 0.016-0.011 0.021s-0.014 0.008-0.023 0.008h-10.827c-0.008 0-0.016-0.003-0.023-0.008s-0.010-0.013-0.011-0.021v-2.483h8.388c0.114-0.011 0.22-0.064 0.297-0.149s0.12-0.195 0.12-0.309-0.043-0.225-0.12-0.309c-0.077-0.085-0.183-0.138-0.297-0.149h-9.315c-0.073 0.006-0.146-0.002-0.215-0.025s-0.133-0.061-0.186-0.11c-0.054-0.049-0.097-0.109-0.126-0.175s-0.045-0.139-0.045-0.211c0-0.073 0.015-0.145 0.045-0.211s0.072-0.126 0.126-0.175c0.054-0.049 0.117-0.086 0.186-0.11s0.142-0.032 0.215-0.025h0.961c0.114-0.011 0.22-0.064 0.297-0.149s0.12-0.195 0.12-0.309c0-0.114-0.043-0.225-0.12-0.309s-0.183-0.138-0.297-0.149h-0.847c-0.121-0.643-0.102-1.304 0.058-1.938s0.455-1.226 0.865-1.736c0.296 0.921 1.059 2.179 2.964 3.18 1.791 0.933 4.162 1.41 7.046 1.41h1.694c0.073-0.006 0.146 0.002 0.215 0.025s0.133 0.061 0.186 0.11c0.054 0.049 0.097 0.109 0.126 0.175s0.045 0.138 0.045 0.211c0 0.073-0.015 0.145-0.045 0.211s-0.072 0.126-0.126 0.175c-0.054 0.049-0.117 0.086-0.186 0.11s-0.142 0.032-0.215 0.025h0.030z"></path><path d="M28.122 25.994c-0.038 0.037-0.074 0.075-0.106 0.115-0.142 0.175-0.233 0.383-0.273 0.625l2.208 0.012c0-0 0 0 0 0-0.003-0.261-0.045-0.47-0.128-0.627-0.038-0.074-0.086-0.136-0.142-0.186-0.171-0.159-0.424-0.238-0.758-0.238-0.33 0-0.597 0.1-0.801 0.3zM32.348 30.073l0.116-1.553h-0.33c-0.104 0.043-0.206 0.084-0.307 0.122-0.727 0.274-1.377 0.41-1.95 0.41-0.652 0-1.168-0.106-1.547-0.318-0.129-0.073-0.241-0.155-0.337-0.246-0.184-0.175-0.308-0.384-0.372-0.628l4.96 0.024 0.073-1.009c0-0.399-0.082-0.764-0.245-1.095-0.285-0.587-0.764-1.027-1.437-1.321-0.673-0.285-1.382-0.428-2.128-0.428-1.57 0-2.768 0.369-3.596 1.107-0.298 0.265-0.54 0.614-0.728 1.046s-0.281 0.907-0.281 1.425c0 0.514 0.092 0.956 0.275 1.327 0.183 0.367 0.422 0.667 0.716 0.899 0.298 0.228 0.654 0.418 1.070 0.569 0.416 0.147 0.836 0.249 1.26 0.306s0.94 0.086 1.547 0.086c0.612 0 1.242-0.073 1.89-0.22 0.648-0.143 1.099-0.31 1.352-0.501zM33.093 28.513l-0.141 1.889-0.225 0.171c-0.368 0.279-0.933 0.468-1.593 0.614-0.689 0.156-1.365 0.235-2.026 0.235-0.625 0-1.17-0.029-1.631-0.091-0.468-0.063-0.93-0.175-1.385-0.336l-0.005-0.002c-0.466-0.169-0.881-0.387-1.238-0.661l-0.008-0.006c-0.372-0.295-0.666-0.669-0.887-1.11l-0.001-0.003c-0.235-0.476-0.34-1.017-0.34-1.605 0-0.595 0.108-1.156 0.333-1.674 0.217-0.501 0.509-0.929 0.886-1.264 0.982-0.876 2.353-1.266 4.013-1.266 0.828 0 1.621 0.159 2.373 0.478l0.006 0.003c0.791 0.345 1.39 0.882 1.749 1.619 0.209 0.423 0.309 0.884 0.309 1.37v0.023l-0.118 1.616-0.070-0z"></path><path d="M23.104 26.26c-0.379-0.051-0.729-0.076-1.049-0.076-1.827 0-2.74 0.402-2.74 1.205 0 0.432 0.181 0.766 0.544 1.003 0.367 0.232 0.903 0.349 1.608 0.349 0.492 0 0.975-0.027 1.449-0.082 0.21-0.024 0.418-0.054 0.624-0.089l0.043 1.926c-0.775 0.204-1.619 0.306-2.532 0.306s-1.68-0.071-2.3-0.214c-0.62-0.139-1.105-0.294-1.456-0.465s-0.66-0.371-0.93-0.599c-0.579-0.489-0.866-1.142-0.862-1.957 0-0.506 0.1-0.962 0.3-1.37 0.367-0.746 1.007-1.292 1.92-1.639 0.913-0.351 1.92-0.526 3.021-0.526s2.145 0.122 3.131 0.367l-0.153 1.963c-0.215-0.041-0.422-0.074-0.62-0.101zM14.878 27.564c-0.005 0.984 0.352 1.818 1.084 2.437 0.313 0.265 0.667 0.493 1.059 0.684 0.413 0.202 0.951 0.369 1.592 0.513 0.681 0.156 1.497 0.23 2.438 0.23 0.96 0 1.858-0.107 2.691-0.326l0.478-0.126-0.070-3.145-0.715 0.121c-0.637 0.108-1.293 0.162-1.968 0.162-0.65 0-1.047-0.11-1.27-0.249-0.183-0.121-0.256-0.258-0.256-0.476 0-0.073 0.018-0.114 0.044-0.149 0.032-0.043 0.106-0.111 0.267-0.182 0.336-0.148 0.916-0.248 1.803-0.248 0.441 0 0.957 0.053 1.553 0.166l0.663 0.126c0.012-0.091 0.027-0.18 0.045-0.268l0.227-2.917-0.515-0.128c-1.040-0.258-2.135-0.385-3.282-0.385-1.168 0-2.251 0.186-3.244 0.567-1.033 0.392-1.81 1.035-2.259 1.948l-0 0.001c-0.246 0.502-0.363 1.054-0.364 1.644z"></path></symbol>
</defs>
</svg>
